<?xml version="1.0" encoding="utf-8"?>
<!-- Generator: Adobe Illustrator 20.1.0, SVG Export Plug-In . SVG Version: 6.00 Build 0)  -->
<svg version="1.1" id="Layer_1" xmlns="http://www.w3.org/2000/svg" xmlns:xlink="http://www.w3.org/1999/xlink" x="0px" y="0px"
	 viewBox="0 0 417.9 65.2" style="enable-background:new 0 0 417.9 65.2;" xml:space="preserve">
<style type="text/css">
	.st0{fill:#31ac6a;}
	.st1{fill:#FFFFFF;}
	.st2{font-family:'FZLTZHK--GBK1-0';}
	.st3{font-size:37.1591px;}
</style>
<polygon class="st0" points="417.9,0 361.1,0 56.8,0 0,0 25.2,32.6 0,65.2 56.8,65.2 361.1,65.2 417.9,65.2 392.8,32.6 "/>
<text transform="matrix(1 0 0 1 137.2574 44.8736)" class="st1 st2 st3">官方团购</text>
<polygon class="st1" points="113.6,19.7 116.3,27.9 124.9,27.9 117.9,33 120.6,41.2 113.6,36.1 106.6,41.2 109.3,33 102.3,27.9 
	110.9,27.9 "/>
<polygon class="st1" points="308.5,19.7 311.2,27.9 319.8,27.9 312.9,33 315.5,41.2 308.5,36.1 301.5,41.2 304.2,33 297.2,27.9 
	305.9,27.9 "/>
</svg>
